<?xml version="1.0" encoding="UTF-8"?>
<svg version="1.1" xmlns="http://www.w3.org/2000/svg" width="1024" height="1024">
<path d="M0 0 C107.91 0 215.82 0 327 0 C327 106.26 327 212.52 327 322 C317.63945362 326.68027319 308.55693282 331.11149379 298.9921875 335.22265625 C294.96199495 336.98598842 291.04322641 338.93990638 287.125 340.9375 C280.72151692 344.19878865 274.22685488 347.17919012 267.64770508 350.06787109 C261.02474927 352.97634603 254.47282862 356.01682652 247.9269104 359.09442139 C236.96542436 364.24592574 225.96804666 369.31094053 214.9375 374.3125 C213.48791806 374.97053876 212.03837428 375.62866161 210.58886719 376.28686523 C207.03980025 377.89830011 203.49039149 379.50898023 199.94085693 381.11938477 C195.21002281 383.26588229 190.47981801 385.41376452 185.75 387.5625 C184.8638501 387.96500977 183.9777002 388.36751953 183.06469727 388.78222656 C178.49411838 390.86004185 173.9302614 392.95124535 169.375 395.0625 C155.33323074 401.56025989 141.19104518 407.8360125 127 414 C147.91401508 424.91460755 169.721758 434.12542627 191.28417969 443.66870117 C198.57461774 446.90152852 205.82495913 450.2132093 213.0625 453.5625 C222.52300037 457.93384397 232.07777799 462.04485774 241.68701172 466.07739258 C254.06366021 471.27251744 266.31204549 476.71104218 278.45751953 482.42456055 C286.78521039 486.32809611 295.22382795 489.99200658 303.69921875 493.5625 C309.44660501 495.99043875 315.16779347 498.46592337 320.8125 501.125 C321.78832031 501.58132813 322.76414062 502.03765625 323.76953125 502.5078125 C326 504 326 504 326.63171381 505.65937638 C327.12219561 508.77660778 327.12400442 511.78541979 327.12304783 514.94216537 C327.12420167 515.64407908 327.12535552 516.34599279 327.12654433 517.06917661 C327.12920162 519.43283978 327.1246961 521.7964355 327.12025452 524.16009521 C327.1206904 525.86709015 327.12156562 527.57408502 327.12284368 529.28107953 C327.12508529 533.98090063 327.12107189 538.68069904 327.11606562 543.38051724 C327.11175654 548.44525226 327.11320787 553.50998595 327.1139679 558.57472229 C327.11449284 567.35276341 327.11134912 576.13079711 327.10573006 584.90883636 C327.09761107 597.60048691 327.09499943 610.29213387 327.09374207 622.98378673 C327.09155218 643.57399137 327.08489379 664.16419205 327.07543945 684.75439453 C327.06626371 704.7586261 327.05918367 724.7628566 327.05493164 744.76708984 C327.05453756 746.61595726 327.05453756 746.61595726 327.05413551 748.50217554 C327.05283049 754.68551442 327.05156678 760.86885331 327.05032361 767.05219221 C327.03995296 818.36813088 327.02233634 869.68406525 327 921 C323.8391742 922.0536086 321.62356329 922.1257743 318.30432129 922.12698364 C317.11095657 922.12980598 315.91759186 922.13262833 314.68806458 922.13553619 C313.37110092 922.13350945 312.05413727 922.1314827 310.69726562 922.12939453 C309.29009456 922.13073021 307.88292384 922.13248887 306.47575378 922.13463593 C302.60468652 922.13918164 298.7336452 922.13730906 294.86257744 922.13422441 C291.55226219 922.13232162 288.2419524 922.13392984 284.93163729 922.13556135 C275.95182263 922.13995757 266.97202374 922.13696021 257.99221087 922.13056505 C251.40349831 922.12591358 244.81478824 922.12351885 238.22607422 922.12231445 C160.99078081 922.10548981 83.75944875 921.657424 6.52682352 921.04390395 C5.49041181 921.035672 4.4540001 921.02744006 3.38618198 921.01895867 C2.59874193 921.01270231 1.81130187 921.00644595 1 921 C-0.05481988 901.57101457 -0.14173687 882.17494201 -0.12226619 862.72514257 C-0.11878692 858.11620282 -0.12121124 853.50726522 -0.12284368 848.89832497 C-0.12490423 840.84332189 -0.12329639 832.78832625 -0.11920547 824.73332405 C-0.11313957 812.75606127 -0.11287252 800.77880312 -0.11374746 788.80153909 C-0.1150577 768.64826992 -0.11173391 748.49500405 -0.10573006 728.34173584 C-0.09980442 708.39971907 -0.09596237 688.45770368 -0.09487724 668.51568604 C-0.0948085 667.27378273 -0.09473976 666.03187941 -0.09466894 664.75234267 C-0.09433059 658.44483739 -0.09402921 652.13733211 -0.09374207 645.82982683 C-0.09164403 601.20311935 -0.08491408 556.57641345 -0.07543945 511.94970703 C-0.07314767 501.14544678 -0.07087226 490.34118653 -0.06866455 479.53692627 C-0.0685276 478.8667931 -0.06839065 478.19665993 -0.06824955 477.50621969 C-0.06189877 446.32013584 -0.05817772 415.13405184 -0.05512976 383.94796752 C-0.05493169 381.92192389 -0.0547325 379.89588027 -0.05453308 377.86983664 C-0.05321323 364.44249779 -0.05193859 351.01515893 -0.05069422 337.58782007 C-0.04815829 310.23701349 -0.04533704 282.88620693 -0.04234314 255.53540039 C-0.04220585 254.27797179 -0.04206856 253.02054318 -0.04192711 251.72501068 C-0.03770568 213.19875365 -0.03227539 174.67249692 -0.02565002 136.14624023 C-0.02546247 135.0528594 -0.02527491 133.95947856 -0.02508167 132.83296497 C-0.01746796 88.55530984 -0.00857297 44.27765495 0 0 Z M65 64 C64.90285649 65.63682647 64.87628427 67.27787414 64.87695217 68.9175806 C64.87496112 69.98897409 64.87297007 71.06036759 64.87091869 72.16422755 C64.87383153 73.35583583 64.87674437 74.54744412 64.87974548 75.77516174 C64.87889106 77.02966674 64.87803663 78.28417174 64.87715632 79.57669204 C64.874909 83.07472725 64.87893585 86.57273213 64.88393438 90.07076347 C64.88823532 93.83697059 64.88679271 97.60317588 64.8860321 101.36938477 C64.88550664 107.89988679 64.88865576 114.43037885 64.89426994 120.96087837 C64.90238194 130.40299354 64.90499985 139.84510387 64.90625793 149.28722214 C64.90844893 164.60481424 64.91511029 179.92240102 64.92456055 195.23999023 C64.93373344 210.1234535 64.94081487 225.00691533 64.94506836 239.89038086 C64.94533108 240.80712578 64.94559381 241.7238707 64.94586449 242.66839577 C64.94716949 247.267235 64.94843321 251.86607424 64.94967639 256.46491349 C64.96005048 294.64327938 64.97767008 332.82163934 65 371 C68.68222509 370.42128079 71.8570592 369.82626355 75.23828125 368.2421875 C76.00865723 367.88479492 76.7790332 367.52740234 77.57275391 367.15917969 C78.37374512 366.77665039 79.17473633 366.39412109 80 366 C80.81259277 365.61489258 81.62518555 365.22978516 82.46240234 364.83300781 C85.04086112 363.60402746 87.61434987 362.36505228 90.1875 361.125 C97.29165877 357.71742574 104.41082402 354.44587391 111.69921875 351.44921875 C114.37645614 350.27376896 116.96607687 349.03154492 119.57421875 347.71484375 C125.6927926 344.62662807 131.90412474 341.75023445 138.125 338.875 C139.35933293 338.30314475 140.59362587 337.73120316 141.82788086 337.15917969 C150.72592138 333.03830106 159.64157981 328.95632058 168.56005859 324.87988281 C175.23077356 321.82539168 181.87054314 318.71156747 188.49389648 315.5559082 C196.89947938 311.55732417 205.34765271 307.65067027 213.79345703 303.73803711 C220.90328662 300.44289523 227.99792557 297.11840732 235.07861328 293.76123047 C241.13079476 290.90746836 247.24684033 288.20031942 253.37939453 285.52416992 C256.94139478 284.16077422 256.94139478 284.16077422 260 282 C260.09790618 279.19314649 260.12992803 276.41090064 260.12025452 273.60362244 C260.12110894 272.7125536 260.12196337 271.82148476 260.12284368 270.90341383 C260.12450122 267.89384123 260.11897265 264.88432339 260.11352539 261.87475586 C260.11324355 259.72685243 260.11340119 257.5789489 260.1139679 255.43104553 C260.114256 249.58004331 260.1083572 243.7290614 260.10139394 237.87806392 C260.09516253 231.77080687 260.09455677 225.66354941 260.09336853 219.55628967 C260.09025458 207.98238035 260.08204035 196.40848042 260.07201904 184.83457524 C260.06085986 171.66188977 260.05534795 158.48920386 260.05032361 145.31651485 C260.03985778 118.21100468 260.02225712 91.10550287 260 64 C256.96217492 62.48108746 253.80935187 62.86297901 250.47715759 62.87301636 C249.69211226 62.87145637 248.90706692 62.86989638 248.09823233 62.86828911 C245.45340888 62.86428318 242.80864229 62.86746718 240.16381836 62.87060547 C238.27354397 62.86925126 236.38326984 62.86747122 234.49299622 62.86529541 C229.34857692 62.86072374 224.20417761 62.86250947 219.05975795 62.8656745 C213.68701926 62.86819909 208.31428233 62.86586031 202.94154358 62.86428833 C193.91862683 62.86246708 184.89571825 62.86487194 175.87280273 62.86962891 C165.42543347 62.87507309 154.97808372 62.87330756 144.53071493 62.8678025 C135.57616665 62.86327206 126.62162427 62.86262043 117.66707522 62.86524117 C112.31211913 62.86680411 106.95717223 62.86699721 101.60221672 62.86370468 C96.57000116 62.86082691 91.53781088 62.86279992 86.50559807 62.86859894 C84.6531885 62.86992697 82.80077682 62.86953169 80.94836807 62.86733627 C78.43083574 62.8646265 75.91338577 62.86800373 73.39585876 62.87301636 C72.28168128 62.86967027 72.28168128 62.86967027 71.14499515 62.86625659 C67.78722981 62.58321374 67.78722981 62.58321374 65 64 Z M66 459 C64.69597691 460.07952854 64.69597691 460.07952854 64.8758015 462.66977412 C64.87618122 463.87538616 64.87656094 465.08099821 64.87695217 466.32314396 C64.87579833 466.99458216 64.87464448 467.66602035 64.87345567 468.35780516 C64.87078251 470.63586418 64.87531687 472.91385427 64.87974548 475.19190979 C64.87930992 476.83031876 64.8784353 478.46872766 64.87715632 480.10713619 C64.87490835 484.63131045 64.87893674 489.15546127 64.88393438 493.67963254 C64.88823439 498.55014446 64.88679278 503.42065494 64.8860321 508.29116821 C64.88550658 516.7369525 64.88865632 525.18272908 64.89426994 533.62851143 C64.90238114 545.83984455 64.90499977 558.05117393 64.90625793 570.26250946 C64.90844905 590.07238798 64.91511076 609.88226239 64.92456055 629.69213867 C64.93373312 648.94083638 64.94081471 668.18953297 64.94506836 687.43823242 C64.94533108 688.62380694 64.94559381 689.80938146 64.94586449 691.03088249 C64.94716949 696.97828813 64.9484332 702.92569379 64.94967639 708.87309945 C64.96005087 758.2487358 64.97767081 807.6243677 65 857 C68.4777505 858.15925017 71.58251317 858.13997734 75.19897461 858.12939453 C75.93811726 858.13112419 76.6772599 858.13285385 77.43880081 858.13463593 C79.92667053 858.13902584 82.414473 858.13602421 84.90234375 858.1328125 C86.68874634 858.13383033 88.47514877 858.13517104 90.2615509 858.1368103 C95.13494536 858.13954003 100.00830853 858.13498707 104.88169861 858.12857056 C107.93020727 858.12500852 110.9787112 858.12338186 114.02722168 858.12231445 C162.68764389 858.10125995 211.34353302 857.58136893 260 857 C261.10351819 853.43803417 261.12579977 850.1288664 261.12698364 846.41273499 C261.12932575 845.41918385 261.12932575 845.41918385 261.13171518 844.40556097 C261.13571157 842.18058901 261.13254359 839.95568539 261.12939453 837.73071289 C261.1307298 836.12766703 261.13248822 834.52462148 261.13463593 832.9215765 C261.13916911 828.53021761 261.1373173 824.13888166 261.13422441 819.74752235 C261.13232631 816.01713463 261.1339262 812.28675178 261.13556135 808.55636418 C261.13993234 798.53067583 261.1369947 788.50500166 261.13056505 778.47931492 C261.1259189 771.17736158 261.12352147 763.87541048 261.12231445 756.57345581 C261.1083957 686.0449797 260.76190574 615.52435913 260 545 C257.33123687 543.73849926 254.66188261 542.4782757 251.9921875 541.21875 C250.87493286 540.69039551 250.87493286 540.69039551 249.73510742 540.15136719 C238.32949609 534.7738166 226.73484081 529.83611483 215.08447266 525.015625 C209.45460242 522.6691238 203.92157863 520.13730261 198.38989258 517.56860352 C192.84227216 515.00155554 187.26554781 512.50008681 181.6875 510 C181.07328186 509.72443268 180.45906372 509.44886536 179.82623291 509.16494751 C170.69271085 505.06904959 161.53143199 501.04064627 152.35247803 497.04776001 C140.19735996 491.75993287 128.10805143 486.34552919 116.0625 480.8125 C105.673041 476.04090322 95.27474512 471.29812762 84.8125 466.6875 C83.82193604 466.24962158 82.83137207 465.81174316 81.81079102 465.3605957 C76.59259714 463.07258679 71.3558603 460.94472483 66 459 Z " fill="#2A83C3" transform="translate(350,53)"/>
<path d="M0 0 C21.78 0 43.56 0 66 0 C66.33 107.91 66.66 215.82 67 327 C87.57460036 336.5345709 108.15703671 346.06730145 129 355 C129 377.77 129 400.54 129 424 C125.12671992 423.22534398 122.74446678 422.56782238 119.3125 420.9375 C114.41825459 418.65395501 109.50146648 416.43443983 104.5625 414.25 C97.02578246 410.90845981 89.50382624 407.53492273 81.98852539 404.14550781 C80.81664673 403.61715332 80.81664673 403.61715332 79.62109375 403.078125 C78.60680298 402.62034668 78.60680298 402.62034668 77.57202148 402.15332031 C73.71910985 400.42563597 69.85860335 398.71493482 66 397 C66 569.92 66 742.84 66 921 C44.22 921 22.44 921 0 921 C0 617.07 0 313.14 0 0 Z " fill="#2A84C3" transform="translate(198,53)"/>
<path d="M0 0 C21.78 0 43.56 0 66 0 C66 303.93 66 607.86 66 921 C49.47555289 925.13111178 9.62065018 921.20914457 0 921 C-0.33 818.37 -0.66 715.74 -1 610 C-25.44816006 598.88376582 -25.44816006 598.88376582 -50 588 C-53.3 586.35 -56.6 584.7 -60 583 C-60 560.23 -60 537.46 -60 514 C-47.83152143 519.21506225 -35.74665605 524.45705808 -23.69921875 529.921875 C-18.16017866 532.40187241 -12.53480999 534.63119572 -6.87109375 536.80859375 C-4 538 -4 538 -1 540 C-1.00056958 538.28980811 -1.00056958 538.28980811 -1.00115067 536.54506689 C-1.01781118 486.32422969 -1.03324012 436.10339229 -1.04234314 385.8825531 C-1.0424812 385.12284262 -1.04261925 384.36313214 -1.04276149 383.58040014 C-1.04575405 367.07187401 -1.04852428 350.56334785 -1.05106533 334.05482164 C-1.05231272 325.95964346 -1.05360927 317.86446528 -1.05493164 309.76928711 C-1.0550624 308.96369766 -1.05519316 308.1581082 -1.05532788 307.32810695 C-1.05959311 281.19262029 -1.06710731 255.05713578 -1.07629722 228.92165043 C-1.08571993 202.07548606 -1.09188314 175.22932288 -1.09391499 148.38315688 C-1.09420317 144.59576423 -1.0945288 140.80837158 -1.09487724 137.02097893 C-1.09497838 135.9028029 -1.09497838 135.9028029 -1.09508156 134.76203745 C-1.09626562 122.73763117 -1.10090999 110.71322856 -1.10683203 98.68882378 C-1.11270506 86.61520973 -1.11497156 74.54159934 -1.11350138 62.46798391 C-1.11280535 55.92016997 -1.11387952 49.37236477 -1.11920547 42.82455254 C-1.12403736 36.84084359 -1.12434005 30.85715287 -1.12089889 24.87344312 C-1.12047299 22.69847299 -1.12177049 20.52350176 -1.12488318 18.34853382 C-1.12884361 15.41260315 -1.12676562 12.47674001 -1.12304783 9.54081059 C-1.12567484 8.67869541 -1.12830186 7.81658023 -1.13100848 6.92834035 C-1.1141458 1.1141458 -1.1141458 1.1141458 0 0 Z " fill="#2A84C3" transform="translate(767,53)"/>
</svg>
